<svg  class="poloto"  width="800"  height="500"  viewBox="0 0 800 500"  xmlns="http://www.w3.org/2000/svg"  ><style  > .poloto{stroke-linecap:round;stroke-linejoin:round;font-family:Roboto,sans-serif;font-size:16px;}.poloto_background{fill:AliceBlue;}.poloto_scatter{stroke-width:7}.poloto_tick_line{stroke:gray;stroke-width:0.5}.poloto_line{stroke-width:2}.poloto_text{fill: black;}.poloto_axis_lines{stroke: black;stroke-width:3;fill:none;stroke-dasharray:none}.poloto_title{font-size:24px;dominant-baseline:start;text-anchor:middle;}.poloto_xname{font-size:24px;dominant-baseline:start;text-anchor:middle;}.poloto_yname{font-size:24px;dominant-baseline:start;text-anchor:middle;}.poloto_legend_text{font-size:20px;dominant-baseline:middle;text-anchor:start;}.poloto0stroke{stroke:blue;}.poloto1stroke{stroke:red;}.poloto2stroke{stroke:green;}.poloto3stroke{stroke:gold;}.poloto4stroke{stroke:aqua;}.poloto5stroke{stroke:lime;}.poloto6stroke{stroke:orange;}.poloto7stroke{stroke:chocolate;}.poloto0fill{fill:blue;}.poloto1fill{fill:red;}.poloto2fill{fill:green;}.poloto3fill{fill:gold;}.poloto4fill{fill:aqua;}.poloto5fill{fill:lime;}.poloto6fill{fill:orange;}.poloto7fill{fill:chocolate;}</style><circle  r="1e5"  class="poloto_background" /><text  class="poloto_text poloto_legend_text"  x="675"  y="100" ></text><path  class="poloto_line poloto0stroke"  fill="none"  stroke="black"  d=" M 150.00 100.00 L 153.91 249.98 L 157.81 399.99 L 161.72 399.94 L 165.62 399.99 L 169.53 399.92 L 173.44 399.91 L 177.34 399.96 L 181.25 399.98 L 185.16 399.95 L 189.06 399.95 L 192.97 399.97 L 196.88 399.98 L 200.78 399.98 L 204.69 399.98 L 208.59 399.97 L 212.50 399.97 L 216.41 399.97 L 220.31 399.98 L 224.22 399.99 L 228.12 399.95 L 232.03 399.96 L 235.94 399.99 L 239.84 399.99 L 243.75 399.98 L 247.66 399.96 L 251.56 399.95 L 255.47 399.96 L 259.38 399.96 L 263.28 399.95 L 267.19 399.99 L 271.09 399.98 L 275.00 399.97 L 278.91 399.97 L 282.81 399.98 L 286.72 399.98 L 290.62 399.99 L 294.53 399.98 L 298.44 399.96 L 302.34 399.95 L 306.25 399.97 L 310.16 399.98 L 314.06 399.97 L 317.97 399.96 L 321.88 399.98 L 325.78 399.98 L 329.69 399.98 L 333.59 400.00 L 337.50 399.99 L 341.41 399.99 L 345.31 399.98 L 349.22 399.99 L 353.12 399.99 L 357.03 399.99 L 360.94 399.98 L 364.84 399.99 L 368.75 399.98 L 372.66 399.98 L 376.56 399.99 L 380.47 400.00 L 384.38 399.99 L 388.28 399.98 L 392.19 399.98 L 396.09 399.98 L 400.00 399.99 L 403.91 399.99 L 407.81 399.99 L 411.72 400.00 L 415.62 399.99 L 419.53 399.99 L 423.44 400.00 L 427.34 399.99 L 431.25 399.98 L 435.16 399.97 L 439.06 399.97 L 442.97 399.99 L 446.88 399.99 L 450.78 399.99 L 454.69 399.98 L 458.59 399.98 L 462.50 399.98 L 466.41 399.98 L 470.31 399.99 L 474.22 399.99 L 478.12 399.98 L 482.03 399.97 L 485.94 399.96 L 489.84 399.96 L 493.75 399.98 L 497.66 399.98 L 501.56 399.97 L 505.47 399.97 L 509.38 399.98 L 513.28 399.99 L 517.19 399.98 L 521.09 399.97 L 525.00 399.99 L 528.91 399.99 L 532.81 399.99 L 536.72 399.98 L 540.62 399.97 L 544.53 399.98 L 548.44 399.99 L 552.34 399.99 L 556.25 399.99 L 560.16 399.99 L 564.06 400.00 L 567.97 399.99 L 571.88 399.99 L 575.78 399.99 L 579.69 400.00 L 583.59 399.99 L 587.50 399.99 L 591.41 399.98 L 595.31 399.98 L 599.22 399.98 L 603.12 399.99 L 607.03 399.98 L 610.94 399.98 L 614.84 399.99 L 618.75 399.99 L 622.66 399.98 L 626.56 399.98 L 630.47 399.99 L 634.38 399.99 L 638.28 399.99 L 642.19 399.99 L 646.09 399.99 L 650.00 399.99 L 150.00 400.00 L 150.00 400.00 L 150.00 400.00 L 150.00 400.00 L 150.00 400.00 L 150.00 400.00 L 150.00 400.00 L 150.00 400.00 L 150.00 400.00 L 150.00 400.00 L 150.00 400.00 L 150.00 400.00 L 150.00 400.00 L 150.00 400.00 L 150.00 400.00 L 150.00 400.00 L 150.00 400.00 L 150.00 400.00 L 150.00 400.00 L 150.00 400.00 L 150.00 400.00 L 150.00 400.00 L 150.00 400.00 L 150.00 400.00 L 150.00 400.00 L 150.00 400.00 L 150.00 400.00 L 150.00 400.00 L 150.00 400.00 L 150.00 400.00 L 150.00 400.00 L 150.00 400.00 L 150.00 400.00 L 150.00 400.00 L 150.00 400.00 L 150.00 400.00 L 150.00 400.00 L 150.00 400.00 L 150.00 400.00 L 150.00 400.00 L 150.00 400.00 L 150.00 400.00 L 150.00 400.00 L 150.00 400.00 L 150.00 400.00 L 150.00 400.00 L 150.00 400.00 L 150.00 400.00 L 150.00 400.00 L 150.00 400.00 L 150.00 400.00 L 150.00 400.00 L 150.00 400.00 L 150.00 400.00 L 150.00 400.00 L 150.00 400.00 L 150.00 400.00 L 150.00 400.00 L 150.00 400.00 L 150.00 400.00 L 150.00 400.00 L 150.00 400.00 L 150.00 400.00 L 150.00 400.00 L 150.00 400.00 L 150.00 400.00 L 150.00 400.00 L 150.00 400.00 L 150.00 400.00 L 150.00 400.00 L 150.00 400.00 L 150.00 400.00 L 150.00 400.00 L 150.00 400.00 L 150.00 400.00 L 150.00 400.00 L 150.00 400.00 L 150.00 400.00 L 150.00 400.00 L 150.00 400.00 L 150.00 400.00 L 150.00 400.00 L 150.00 400.00 L 150.00 400.00 L 150.00 400.00 L 150.00 400.00 L 150.00 400.00 L 150.00 400.00 L 150.00 400.00 L 150.00 400.00 L 150.00 400.00 L 150.00 400.00 L 150.00 400.00 L 150.00 400.00 L 150.00 400.00 L 150.00 400.00 L 150.00 400.00 L 150.00 400.00 L 150.00 400.00 L 150.00 400.00 L 150.00 400.00 L 150.00 400.00 L 150.00 400.00 L 150.00 400.00 L 150.00 400.00 L 150.00 400.00 L 150.00 400.00 L 150.00 400.00 L 150.00 400.00 L 150.00 400.00 L 150.00 400.00 L 150.00 400.00 L 150.00 400.00 L 150.00 400.00 L 150.00 400.00 L 150.00 400.00 L 150.00 400.00 L 150.00 400.00 L 150.00 400.00 L 150.00 400.00 L 150.00 400.00 L 150.00 400.00 L 150.00 400.00 L 150.00 400.00 L 150.00 400.00 L 150.00 400.00 L 150.00 400.00" /><text  class="poloto_labels poloto_text poloto_title"  x="400"  y="37.5" >FFT</text><text  class="poloto_labels poloto_text poloto_xname"  x="400"  y="481.25" >X</text><text  class="poloto_labels poloto_text poloto_yname"  transform="rotate(-90,37.5,250)"  x="37.5"  y="250" >Y</text><text  class="poloto_tick_labels poloto_text"  dominant-baseline="middle"  text-anchor="start"  x="150"  y="70" ></text><line  class="poloto_axis_lines"  stroke="black"  x1="150"  x2="144"  y1="400"  y2="400" /><text  class="poloto_tick_labels poloto_text"  dominant-baseline="middle"  text-anchor="end"  x="135"  y="400" >0</text><line  class="poloto_axis_lines"  stroke="black"  x1="150"  x2="144"  y1="310.22372492682285"  y2="310.22372492682285" /><text  class="poloto_tick_labels poloto_text"  dominant-baseline="middle"  text-anchor="end"  x="135"  y="310.22372492682285" >5</text><line  class="poloto_axis_lines"  stroke="black"  x1="150"  x2="144"  y1="220.4474498536457"  y2="220.4474498536457" /><text  class="poloto_tick_labels poloto_text"  dominant-baseline="middle"  text-anchor="end"  x="135"  y="220.4474498536457" >10</text><line  class="poloto_axis_lines"  stroke="black"  x1="150"  x2="144"  y1="130.67117478046862"  y2="130.67117478046862" /><text  class="poloto_tick_labels poloto_text"  dominant-baseline="middle"  text-anchor="end"  x="135"  y="130.67117478046862" >15</text><text  class="poloto_tick_labels poloto_text"  dominant-baseline="middle"  text-anchor="start"  x="440.00000000000006"  y="70" ></text><line  class="poloto_axis_lines"  stroke="black"  x1="150"  x2="150"  y1="400"  y2="405" /><text  class="poloto_tick_labels poloto_text"  dominant-baseline="start"  text-anchor="middle"  x="150"  y="430" >0</text><line  class="poloto_axis_lines"  stroke="black"  x1="263.37868480725626"  x2="263.37868480725626"  y1="400"  y2="405" /><text  class="poloto_tick_labels poloto_text"  dominant-baseline="start"  text-anchor="middle"  x="263.37868480725626"  y="430" >5000</text><line  class="poloto_axis_lines"  stroke="black"  x1="376.75736961451247"  x2="376.75736961451247"  y1="400"  y2="405" /><text  class="poloto_tick_labels poloto_text"  dominant-baseline="start"  text-anchor="middle"  x="376.75736961451247"  y="430" >10000</text><line  class="poloto_axis_lines"  stroke="black"  x1="490.1360544217687"  x2="490.1360544217687"  y1="400"  y2="405" /><text  class="poloto_tick_labels poloto_text"  dominant-baseline="start"  text-anchor="middle"  x="490.1360544217687"  y="430" >15000</text><line  class="poloto_axis_lines"  stroke="black"  x1="603.5147392290249"  x2="603.5147392290249"  y1="400"  y2="405" /><text  class="poloto_tick_labels poloto_text"  dominant-baseline="start"  text-anchor="middle"  x="603.5147392290249"  y="430" >20000</text><path  stroke="black"  fill="none"  class="poloto_axis_lines"  style="stroke-dasharray:11.337868480725623;stroke-dashoffset:-0;"  d=" M 150 400 L 650 400" /><path  stroke="black"  fill="none"  class="poloto_axis_lines"  style="stroke-dasharray:8.977627507317713;stroke-dashoffset:-0;"  d=" M 150 400 L 150 100" /></svg>