<svg  class="poloto"  width="800"  height="500"  viewBox="0 0 800 500"  xmlns="http://www.w3.org/2000/svg"  ><style  > .poloto{stroke-linecap:round;stroke-linejoin:round;font-family:Roboto,sans-serif;font-size:16px;}.poloto_background{fill:AliceBlue;}.poloto_scatter{stroke-width:7}.poloto_tick_line{stroke:gray;stroke-width:0.5}.poloto_line{stroke-width:2}.poloto_text{fill: black;}.poloto_axis_lines{stroke: black;stroke-width:3;fill:none;stroke-dasharray:none}.poloto_title{font-size:24px;dominant-baseline:start;text-anchor:middle;}.poloto_xname{font-size:24px;dominant-baseline:start;text-anchor:middle;}.poloto_yname{font-size:24px;dominant-baseline:start;text-anchor:middle;}.poloto_legend_text{font-size:20px;dominant-baseline:middle;text-anchor:start;}.poloto0stroke{stroke:blue;}.poloto1stroke{stroke:red;}.poloto2stroke{stroke:green;}.poloto3stroke{stroke:gold;}.poloto4stroke{stroke:aqua;}.poloto5stroke{stroke:lime;}.poloto6stroke{stroke:orange;}.poloto7stroke{stroke:chocolate;}.poloto0fill{fill:blue;}.poloto1fill{fill:red;}.poloto2fill{fill:green;}.poloto3fill{fill:gold;}.poloto4fill{fill:aqua;}.poloto5fill{fill:lime;}.poloto6fill{fill:orange;}.poloto7fill{fill:chocolate;}</style><circle  r="1e5"  class="poloto_background" /><text  class="poloto_text poloto_legend_text"  x="675"  y="100" ></text><path  class="poloto_line poloto0stroke"  fill="none"  stroke="black"  d=" M 150.00 100.00 L 153.91 238.52 L 157.81 357.82 L 161.72 300.64 L 165.62 313.86 L 169.53 366.73 L 173.44 270.96 L 177.34 287.29 L 181.25 295.51 L 185.16 304.76 L 189.06 355.54 L 192.97 355.25 L 196.88 335.61 L 200.78 357.63 L 204.69 357.61 L 208.59 338.51 L 212.50 336.71 L 216.41 348.56 L 220.31 394.97 L 224.22 349.04 L 228.12 346.14 L 232.03 329.15 L 235.94 282.34 L 239.84 249.76 L 243.75 301.19 L 247.66 356.39 L 251.56 302.73 L 255.47 319.93 L 259.38 343.71 L 263.28 365.18 L 267.19 394.89 L 271.09 335.14 L 275.00 315.74 L 278.91 338.19 L 282.81 338.96 L 286.72 378.48 L 290.62 340.49 L 294.53 350.75 L 298.44 372.68 L 302.34 371.22 L 306.25 374.47 L 310.16 374.45 L 314.06 374.32 L 317.97 364.75 L 321.88 397.29 L 325.78 344.20 L 329.69 346.54 L 333.59 377.77 L 337.50 370.73 L 341.41 389.23 L 345.31 375.47 L 349.22 351.06 L 353.12 356.47 L 357.03 369.73 L 360.94 366.70 L 364.84 390.67 L 368.75 373.75 L 372.66 390.30 L 376.56 374.09 L 380.47 351.39 L 384.38 371.59 L 388.28 354.09 L 392.19 361.99 L 396.09 339.27 L 400.00 345.73 L 403.91 363.94 L 407.81 397.20 L 411.72 361.53 L 415.62 363.25 L 419.53 379.39 L 423.44 352.37 L 427.34 345.50 L 431.25 360.47 L 435.16 393.14 L 439.06 367.93 L 442.97 375.72 L 446.88 368.11 L 450.78 361.04 L 454.69 391.16 L 458.59 354.42 L 462.50 341.26 L 466.41 358.75 L 470.31 359.76 L 474.22 340.25 L 478.12 357.99 L 482.03 372.84 L 485.94 377.97 L 489.84 379.60 L 493.75 387.47 L 497.66 386.95 L 501.56 385.90 L 505.47 383.84 L 509.38 355.76 L 513.28 334.69 L 517.19 367.74 L 521.09 360.70 L 525.00 371.76 L 528.91 381.96 L 532.81 362.58 L 536.72 373.51 L 540.62 385.12 L 544.53 392.94 L 548.44 387.60 L 552.34 380.01 L 556.25 396.91 L 560.16 377.38 L 564.06 361.46 L 567.97 370.14 L 571.88 348.26 L 575.78 368.04 L 579.69 381.46 L 583.59 391.64 L 587.50 378.71 L 591.41 396.57 L 595.31 372.31 L 599.22 370.37 L 603.12 385.35 L 607.03 390.36 L 610.94 382.56 L 614.84 376.52 L 618.75 375.05 L 622.66 370.15 L 626.56 382.11 L 630.47 376.66 L 634.38 370.35 L 638.28 378.77 L 642.19 379.10 L 646.09 387.62 L 650.00 397.54 L 150.00 400.00 L 150.00 400.00 L 150.00 400.00 L 150.00 400.00 L 150.00 400.00 L 150.00 400.00 L 150.00 400.00 L 150.00 400.00 L 150.00 400.00 L 150.00 400.00 L 150.00 400.00 L 150.00 400.00 L 150.00 400.00 L 150.00 400.00 L 150.00 400.00 L 150.00 400.00 L 150.00 400.00 L 150.00 400.00 L 150.00 400.00 L 150.00 400.00 L 150.00 400.00 L 150.00 400.00 L 150.00 400.00 L 150.00 400.00 L 150.00 400.00 L 150.00 400.00 L 150.00 400.00 L 150.00 400.00 L 150.00 400.00 L 150.00 400.00 L 150.00 400.00 L 150.00 400.00 L 150.00 400.00 L 150.00 400.00 L 150.00 400.00 L 150.00 400.00 L 150.00 400.00 L 150.00 400.00 L 150.00 400.00 L 150.00 400.00 L 150.00 400.00 L 150.00 400.00 L 150.00 400.00 L 150.00 400.00 L 150.00 400.00 L 150.00 400.00 L 150.00 400.00 L 150.00 400.00 L 150.00 400.00 L 150.00 400.00 L 150.00 400.00 L 150.00 400.00 L 150.00 400.00 L 150.00 400.00 L 150.00 400.00 L 150.00 400.00 L 150.00 400.00 L 150.00 400.00 L 150.00 400.00 L 150.00 400.00 L 150.00 400.00 L 150.00 400.00 L 150.00 400.00 L 150.00 400.00 L 150.00 400.00 L 150.00 400.00 L 150.00 400.00 L 150.00 400.00 L 150.00 400.00 L 150.00 400.00 L 150.00 400.00 L 150.00 400.00 L 150.00 400.00 L 150.00 400.00 L 150.00 400.00 L 150.00 400.00 L 150.00 400.00 L 150.00 400.00 L 150.00 400.00 L 150.00 400.00 L 150.00 400.00 L 150.00 400.00 L 150.00 400.00 L 150.00 400.00 L 150.00 400.00 L 150.00 400.00 L 150.00 400.00 L 150.00 400.00 L 150.00 400.00 L 150.00 400.00 L 150.00 400.00 L 150.00 400.00 L 150.00 400.00 L 150.00 400.00 L 150.00 400.00 L 150.00 400.00 L 150.00 400.00 L 150.00 400.00 L 150.00 400.00 L 150.00 400.00 L 150.00 400.00 L 150.00 400.00 L 150.00 400.00 L 150.00 400.00 L 150.00 400.00 L 150.00 400.00 L 150.00 400.00 L 150.00 400.00 L 150.00 400.00 L 150.00 400.00 L 150.00 400.00 L 150.00 400.00 L 150.00 400.00 L 150.00 400.00 L 150.00 400.00 L 150.00 400.00 L 150.00 400.00 L 150.00 400.00 L 150.00 400.00 L 150.00 400.00 L 150.00 400.00 L 150.00 400.00 L 150.00 400.00 L 150.00 400.00 L 150.00 400.00 L 150.00 400.00 L 150.00 400.00" /><text  class="poloto_labels poloto_text poloto_title"  x="400"  y="37.5" >FFT</text><text  class="poloto_labels poloto_text poloto_xname"  x="400"  y="481.25" >X</text><text  class="poloto_labels poloto_text poloto_yname"  transform="rotate(-90,37.5,250)"  x="37.5"  y="250" >Y</text><text  class="poloto_tick_labels poloto_text"  dominant-baseline="middle"  text-anchor="start"  x="150"  y="70" ></text><line  class="poloto_axis_lines"  stroke="black"  x1="150"  x2="144"  y1="400"  y2="400" /><text  class="poloto_tick_labels poloto_text"  dominant-baseline="middle"  text-anchor="end"  x="135"  y="400" >0e0</text><line  class="poloto_axis_lines"  stroke="black"  x1="150"  x2="144"  y1="342.8857896457642"  y2="342.8857896457642" /><text  class="poloto_tick_labels poloto_text"  dominant-baseline="middle"  text-anchor="end"  x="135"  y="342.8857896457642" >0.002</text><line  class="poloto_axis_lines"  stroke="black"  x1="150"  x2="144"  y1="285.7715792915284"  y2="285.7715792915284" /><text  class="poloto_tick_labels poloto_text"  dominant-baseline="middle"  text-anchor="end"  x="135"  y="285.7715792915284" >0.004</text><line  class="poloto_axis_lines"  stroke="black"  x1="150"  x2="144"  y1="228.65736893729263"  y2="228.65736893729263" /><text  class="poloto_tick_labels poloto_text"  dominant-baseline="middle"  text-anchor="end"  x="135"  y="228.65736893729263" >0.006</text><line  class="poloto_axis_lines"  stroke="black"  x1="150"  x2="144"  y1="171.54315858305677"  y2="171.54315858305677" /><text  class="poloto_tick_labels poloto_text"  dominant-baseline="middle"  text-anchor="end"  x="135"  y="171.54315858305677" >0.008</text><line  class="poloto_axis_lines"  stroke="black"  x1="150"  x2="144"  y1="114.42894822882096"  y2="114.42894822882096" /><text  class="poloto_tick_labels poloto_text"  dominant-baseline="middle"  text-anchor="end"  x="135"  y="114.42894822882096" >0.010</text><text  class="poloto_tick_labels poloto_text"  dominant-baseline="middle"  text-anchor="start"  x="440.00000000000006"  y="70" ></text><line  class="poloto_axis_lines"  stroke="black"  x1="150"  x2="150"  y1="400"  y2="405" /><text  class="poloto_tick_labels poloto_text"  dominant-baseline="start"  text-anchor="middle"  x="150"  y="430" >0</text><line  class="poloto_axis_lines"  stroke="black"  x1="263.37868480725626"  x2="263.37868480725626"  y1="400"  y2="405" /><text  class="poloto_tick_labels poloto_text"  dominant-baseline="start"  text-anchor="middle"  x="263.37868480725626"  y="430" >5000</text><line  class="poloto_axis_lines"  stroke="black"  x1="376.75736961451247"  x2="376.75736961451247"  y1="400"  y2="405" /><text  class="poloto_tick_labels poloto_text"  dominant-baseline="start"  text-anchor="middle"  x="376.75736961451247"  y="430" >10000</text><line  class="poloto_axis_lines"  stroke="black"  x1="490.1360544217687"  x2="490.1360544217687"  y1="400"  y2="405" /><text  class="poloto_tick_labels poloto_text"  dominant-baseline="start"  text-anchor="middle"  x="490.1360544217687"  y="430" >15000</text><line  class="poloto_axis_lines"  stroke="black"  x1="603.5147392290249"  x2="603.5147392290249"  y1="400"  y2="405" /><text  class="poloto_tick_labels poloto_text"  dominant-baseline="start"  text-anchor="middle"  x="603.5147392290249"  y="430" >20000</text><path  stroke="black"  fill="none"  class="poloto_axis_lines"  style="stroke-dasharray:11.337868480725623;stroke-dashoffset:-0;"  d=" M 150 400 L 650 400" /><path  stroke="black"  fill="none"  class="poloto_axis_lines"  style="stroke-dasharray:7.139276294279475;stroke-dashoffset:-0;"  d=" M 150 400 L 150 100" /></svg>