<svg  class="poloto"  width="800"  height="500"  viewBox="0 0 800 500"  xmlns="http://www.w3.org/2000/svg"  ><style  > .poloto{stroke-linecap:round;stroke-linejoin:round;font-family:Roboto,sans-serif;font-size:16px;}.poloto_background{fill:AliceBlue;}.poloto_scatter{stroke-width:7}.poloto_tick_line{stroke:gray;stroke-width:0.5}.poloto_line{stroke-width:2}.poloto_text{fill: black;}.poloto_axis_lines{stroke: black;stroke-width:3;fill:none;stroke-dasharray:none}.poloto_title{font-size:24px;dominant-baseline:start;text-anchor:middle;}.poloto_xname{font-size:24px;dominant-baseline:start;text-anchor:middle;}.poloto_yname{font-size:24px;dominant-baseline:start;text-anchor:middle;}.poloto_legend_text{font-size:20px;dominant-baseline:middle;text-anchor:start;}.poloto0stroke{stroke:blue;}.poloto1stroke{stroke:red;}.poloto2stroke{stroke:green;}.poloto3stroke{stroke:gold;}.poloto4stroke{stroke:aqua;}.poloto5stroke{stroke:lime;}.poloto6stroke{stroke:orange;}.poloto7stroke{stroke:chocolate;}.poloto0fill{fill:blue;}.poloto1fill{fill:red;}.poloto2fill{fill:green;}.poloto3fill{fill:gold;}.poloto4fill{fill:aqua;}.poloto5fill{fill:lime;}.poloto6fill{fill:orange;}.poloto7fill{fill:chocolate;}</style><circle  r="1e5"  class="poloto_background" /><text  class="poloto_text poloto_legend_text"  x="675"  y="100" ></text><path  class="poloto_line poloto0stroke"  fill="none"  stroke="black"  d=" M 150.00 100.00 L 153.91 160.36 L 157.81 298.78 L 161.72 307.56 L 165.62 306.66 L 169.53 327.51 L 173.44 334.31 L 177.34 338.98 L 181.25 328.81 L 185.16 336.44 L 189.06 352.07 L 192.97 347.50 L 196.88 383.22 L 200.78 367.21 L 204.69 370.87 L 208.59 388.55 L 212.50 392.17 L 216.41 388.13 L 220.31 387.73 L 224.22 380.42 L 228.12 380.41 L 232.03 372.96 L 235.94 375.34 L 239.84 375.26 L 243.75 385.79 L 247.66 383.94 L 251.56 387.13 L 255.47 387.76 L 259.38 393.92 L 263.28 387.96 L 267.19 392.05 L 271.09 383.21 L 275.00 385.09 L 278.91 389.83 L 282.81 392.05 L 286.72 392.86 L 290.62 397.09 L 294.53 394.85 L 298.44 397.40 L 302.34 393.51 L 306.25 389.04 L 310.16 395.88 L 314.06 391.50 L 317.97 389.59 L 321.88 393.40 L 325.78 395.10 L 329.69 398.55 L 333.59 396.77 L 337.50 393.91 L 341.41 389.52 L 345.31 384.64 L 349.22 379.22 L 353.12 381.50 L 357.03 377.01 L 360.94 374.05 L 364.84 374.92 L 368.75 376.62 L 372.66 376.34 L 376.56 378.13 L 380.47 377.33 L 384.38 380.85 L 388.28 378.05 L 392.19 379.70 L 396.09 376.01 L 400.00 377.80 L 403.91 378.97 L 407.81 376.52 L 411.72 377.47 L 415.62 380.14 L 419.53 385.58 L 423.44 386.48 L 427.34 393.06 L 431.25 390.04 L 435.16 397.22 L 439.06 395.72 L 442.97 394.43 L 446.88 391.06 L 450.78 388.82 L 454.69 392.06 L 458.59 390.79 L 462.50 388.43 L 466.41 389.46 L 470.31 388.47 L 474.22 395.86 L 478.12 394.90 L 482.03 395.75 L 485.94 393.75 L 489.84 392.48 L 493.75 393.93 L 497.66 389.85 L 501.56 388.47 L 505.47 390.03 L 509.38 388.05 L 513.28 391.50 L 517.19 392.03 L 521.09 389.67 L 525.00 396.47 L 528.91 395.79 L 532.81 395.82 L 536.72 397.50 L 540.62 398.45 L 544.53 395.26 L 548.44 393.31 L 552.34 392.40 L 556.25 395.67 L 560.16 392.60 L 564.06 392.67 L 567.97 395.12 L 571.88 396.32 L 575.78 398.58 L 579.69 399.75 L 583.59 398.55 L 587.50 396.17 L 591.41 396.46 L 595.31 394.07 L 599.22 394.30 L 603.12 392.22 L 607.03 396.63 L 610.94 396.11 L 614.84 397.93 L 618.75 395.52 L 622.66 398.24 L 626.56 399.21 L 630.47 397.88 L 634.38 398.59 L 638.28 396.85 L 642.19 397.62 L 646.09 397.81 L 650.00 396.72 L 150.00 400.00 L 150.00 400.00 L 150.00 400.00 L 150.00 400.00 L 150.00 400.00 L 150.00 400.00 L 150.00 400.00 L 150.00 400.00 L 150.00 400.00 L 150.00 400.00 L 150.00 400.00 L 150.00 400.00 L 150.00 400.00 L 150.00 400.00 L 150.00 400.00 L 150.00 400.00 L 150.00 400.00 L 150.00 400.00 L 150.00 400.00 L 150.00 400.00 L 150.00 400.00 L 150.00 400.00 L 150.00 400.00 L 150.00 400.00 L 150.00 400.00 L 150.00 400.00 L 150.00 400.00 L 150.00 400.00 L 150.00 400.00 L 150.00 400.00 L 150.00 400.00 L 150.00 400.00 L 150.00 400.00 L 150.00 400.00 L 150.00 400.00 L 150.00 400.00 L 150.00 400.00 L 150.00 400.00 L 150.00 400.00 L 150.00 400.00 L 150.00 400.00 L 150.00 400.00 L 150.00 400.00 L 150.00 400.00 L 150.00 400.00 L 150.00 400.00 L 150.00 400.00 L 150.00 400.00 L 150.00 400.00 L 150.00 400.00 L 150.00 400.00 L 150.00 400.00 L 150.00 400.00 L 150.00 400.00 L 150.00 400.00 L 150.00 400.00 L 150.00 400.00 L 150.00 400.00 L 150.00 400.00 L 150.00 400.00 L 150.00 400.00 L 150.00 400.00 L 150.00 400.00 L 150.00 400.00 L 150.00 400.00 L 150.00 400.00 L 150.00 400.00 L 150.00 400.00 L 150.00 400.00 L 150.00 400.00 L 150.00 400.00 L 150.00 400.00 L 150.00 400.00 L 150.00 400.00 L 150.00 400.00 L 150.00 400.00 L 150.00 400.00 L 150.00 400.00 L 150.00 400.00 L 150.00 400.00 L 150.00 400.00 L 150.00 400.00 L 150.00 400.00 L 150.00 400.00 L 150.00 400.00 L 150.00 400.00 L 150.00 400.00 L 150.00 400.00 L 150.00 400.00 L 150.00 400.00 L 150.00 400.00 L 150.00 400.00 L 150.00 400.00 L 150.00 400.00 L 150.00 400.00 L 150.00 400.00 L 150.00 400.00 L 150.00 400.00 L 150.00 400.00 L 150.00 400.00 L 150.00 400.00 L 150.00 400.00 L 150.00 400.00 L 150.00 400.00 L 150.00 400.00 L 150.00 400.00 L 150.00 400.00 L 150.00 400.00 L 150.00 400.00 L 150.00 400.00 L 150.00 400.00 L 150.00 400.00 L 150.00 400.00 L 150.00 400.00 L 150.00 400.00 L 150.00 400.00 L 150.00 400.00 L 150.00 400.00 L 150.00 400.00 L 150.00 400.00 L 150.00 400.00 L 150.00 400.00 L 150.00 400.00 L 150.00 400.00 L 150.00 400.00 L 150.00 400.00 L 150.00 400.00" /><text  class="poloto_labels poloto_text poloto_title"  x="400"  y="37.5" >FFT</text><text  class="poloto_labels poloto_text poloto_xname"  x="400"  y="481.25" >X</text><text  class="poloto_labels poloto_text poloto_yname"  transform="rotate(-90,37.5,250)"  x="37.5"  y="250" >Y</text><text  class="poloto_tick_labels poloto_text"  dominant-baseline="middle"  text-anchor="start"  x="150"  y="70" ></text><line  class="poloto_axis_lines"  stroke="black"  x1="150"  x2="144"  y1="400"  y2="400" /><text  class="poloto_tick_labels poloto_text"  dominant-baseline="middle"  text-anchor="end"  x="135"  y="400" >0.0</text><line  class="poloto_axis_lines"  stroke="black"  x1="150"  x2="144"  y1="362.43149664075577"  y2="362.43149664075577" /><text  class="poloto_tick_labels poloto_text"  dominant-baseline="middle"  text-anchor="end"  x="135"  y="362.43149664075577" >0.5</text><line  class="poloto_axis_lines"  stroke="black"  x1="150"  x2="144"  y1="324.86299328151154"  y2="324.86299328151154" /><text  class="poloto_tick_labels poloto_text"  dominant-baseline="middle"  text-anchor="end"  x="135"  y="324.86299328151154" >1.0</text><line  class="poloto_axis_lines"  stroke="black"  x1="150"  x2="144"  y1="287.2944899222673"  y2="287.2944899222673" /><text  class="poloto_tick_labels poloto_text"  dominant-baseline="middle"  text-anchor="end"  x="135"  y="287.2944899222673" >1.5</text><line  class="poloto_axis_lines"  stroke="black"  x1="150"  x2="144"  y1="249.72598656302307"  y2="249.72598656302307" /><text  class="poloto_tick_labels poloto_text"  dominant-baseline="middle"  text-anchor="end"  x="135"  y="249.72598656302307" >2.0</text><line  class="poloto_axis_lines"  stroke="black"  x1="150"  x2="144"  y1="212.15748320377884"  y2="212.15748320377884" /><text  class="poloto_tick_labels poloto_text"  dominant-baseline="middle"  text-anchor="end"  x="135"  y="212.15748320377884" >2.5</text><line  class="poloto_axis_lines"  stroke="black"  x1="150"  x2="144"  y1="174.58897984453466"  y2="174.58897984453466" /><text  class="poloto_tick_labels poloto_text"  dominant-baseline="middle"  text-anchor="end"  x="135"  y="174.58897984453466" >3.0</text><line  class="poloto_axis_lines"  stroke="black"  x1="150"  x2="144"  y1="137.02047648529043"  y2="137.02047648529043" /><text  class="poloto_tick_labels poloto_text"  dominant-baseline="middle"  text-anchor="end"  x="135"  y="137.02047648529043" >3.5</text><text  class="poloto_tick_labels poloto_text"  dominant-baseline="middle"  text-anchor="start"  x="440.00000000000006"  y="70" ></text><line  class="poloto_axis_lines"  stroke="black"  x1="150"  x2="150"  y1="400"  y2="405" /><text  class="poloto_tick_labels poloto_text"  dominant-baseline="start"  text-anchor="middle"  x="150"  y="430" >0</text><line  class="poloto_axis_lines"  stroke="black"  x1="263.37868480725626"  x2="263.37868480725626"  y1="400"  y2="405" /><text  class="poloto_tick_labels poloto_text"  dominant-baseline="start"  text-anchor="middle"  x="263.37868480725626"  y="430" >5000</text><line  class="poloto_axis_lines"  stroke="black"  x1="376.75736961451247"  x2="376.75736961451247"  y1="400"  y2="405" /><text  class="poloto_tick_labels poloto_text"  dominant-baseline="start"  text-anchor="middle"  x="376.75736961451247"  y="430" >10000</text><line  class="poloto_axis_lines"  stroke="black"  x1="490.1360544217687"  x2="490.1360544217687"  y1="400"  y2="405" /><text  class="poloto_tick_labels poloto_text"  dominant-baseline="start"  text-anchor="middle"  x="490.1360544217687"  y="430" >15000</text><line  class="poloto_axis_lines"  stroke="black"  x1="603.5147392290249"  x2="603.5147392290249"  y1="400"  y2="405" /><text  class="poloto_tick_labels poloto_text"  dominant-baseline="start"  text-anchor="middle"  x="603.5147392290249"  y="430" >20000</text><path  stroke="black"  fill="none"  class="poloto_axis_lines"  style="stroke-dasharray:11.337868480725623;stroke-dashoffset:-0;"  d=" M 150 400 L 650 400" /><path  stroke="black"  fill="none"  class="poloto_axis_lines"  style="stroke-dasharray:3.7568503359244225;stroke-dashoffset:-0;"  d=" M 150 400 L 150 100" /></svg>